<?xml version="1.0" standalone="no"?>
<!DOCTYPE svg PUBLIC "-//W3C//DTD SVG 20010904//EN"
 "http://www.w3.org/TR/2001/REC-SVG-20010904/DTD/svg10.dtd">
<svg version="1.0" xmlns="http://www.w3.org/2000/svg"
 width="200.000000pt" height="37.000000pt" viewBox="0 0 200.000000 37.000000"
 preserveAspectRatio="xMidYMid meet">

<g transform="translate(0.000000,37.000000) scale(0.100000,-0.100000)"
fill="#000000" stroke="none">
<path d="M1480 296 c0 -34 -1 -35 -33 -29 -28 4 -37 1 -55 -22 -26 -33 -29
-91 -6 -123 17 -24 62 -30 82 -10 9 9 12 9 12 0 0 -7 9 -12 20 -12 19 0 20 7
20 115 0 108 -1 115 -20 115 -16 0 -20 -7 -20 -34z m0 -110 c0 -41 -23 -64
-45 -46 -18 15 -20 71 -3 88 20 20 48 -4 48 -42z"/>
<path d="M30 205 l0 -105 59 0 c50 0 59 3 64 19 4 17 -1 20 -37 23 l-41 3 -3
83 c-3 74 -5 82 -22 82 -19 0 -20 -7 -20 -105z"/>
<path d="M870 295 c0 -9 9 -15 25 -15 25 0 25 -1 25 -90 0 -89 0 -90 25 -90
25 0 25 1 25 90 0 88 0 90 24 90 13 0 26 7 30 15 4 13 -8 15 -74 15 -64 0 -80
-3 -80 -15z"/>
<path d="M382 263 c-24 -9 -44 -64 -37 -99 7 -42 42 -66 87 -62 42 4 46 33 5
34 -32 1 -47 17 -47 50 0 28 24 48 51 41 24 -7 39 21 18 34 -15 9 -56 11 -77
2z"/>
<path d="M511 261 c-19 -12 -3 -34 21 -28 26 7 48 -2 48 -19 0 -8 -10 -14 -26
-14 -41 0 -64 -18 -64 -48 0 -16 5 -33 12 -40 14 -14 64 -16 73 -2 4 6 13 5
26 -3 16 -10 21 -9 29 2 5 9 5 22 -1 32 -5 10 -9 38 -9 63 0 35 -5 48 -19 56
-24 12 -71 13 -90 1z m69 -106 c0 -18 -31 -28 -44 -15 -8 8 -6 15 8 25 21 16
36 11 36 -10z"/>
<path d="M670 252 c-31 -25 -19 -59 27 -78 41 -18 38 -40 -5 -37 -34 3 -53
-14 -31 -28 19 -12 76 -11 100 1 12 7 19 21 19 41 0 26 -6 33 -40 46 -47 19
-48 39 -2 35 23 -2 32 1 32 11 0 31 -66 37 -100 9z"/>
<path d="M1045 245 c-53 -52 -18 -145 53 -145 20 0 43 4 51 9 21 14 2 33 -26
26 -24 -6 -53 8 -53 26 0 5 23 9 50 9 46 0 50 2 50 24 0 13 -9 35 -21 50 -27
34 -71 35 -104 1z m73 -28 c3 -12 -3 -17 -22 -17 -25 0 -35 18 -19 34 12 12
38 2 41 -17z"/>
<path d="M1215 245 c-31 -30 -33 -82 -4 -119 28 -36 80 -36 116 0 22 22 25 32
20 67 -10 74 -82 103 -132 52z m79 -31 c18 -48 -9 -99 -39 -74 -15 12 -21 71
-8 83 12 13 41 7 47 -9z"/>
<path d="M1592 263 c-23 -9 -44 -64 -37 -99 12 -65 95 -88 134 -38 57 73 -13
171 -97 137z m68 -78 c0 -18 -7 -39 -16 -46 -34 -28 -61 53 -28 86 22 22 44 2
44 -40z"/>
<path d="M1797 253 c-11 -11 -17 -13 -17 -5 0 7 -9 12 -20 12 -18 0 -20 -7
-20 -80 0 -78 1 -80 25 -80 22 0 24 4 27 57 3 51 6 58 26 61 16 3 22 10 22 28
0 28 -19 31 -43 7z"/>
<path d="M1872 247 c-15 -16 -22 -36 -22 -65 0 -53 26 -82 75 -82 49 0 75 29
75 83 0 78 -79 117 -128 64z m78 -63 c0 -47 -20 -68 -43 -45 -15 15 -14 81 3
91 26 16 40 -1 40 -46z"/>
<path d="M182 183 c3 -77 3 -78 31 -81 16 -2 35 2 43 9 10 8 14 8 14 0 0 -6 9
-11 20 -11 18 0 20 7 20 80 0 73 -2 80 -20 80 -18 0 -20 -7 -20 -54 0 -35 -5
-58 -15 -66 -24 -20 -35 -2 -35 61 0 53 -2 59 -20 59 -19 0 -21 -5 -18 -77z"/>
</g>
</svg>
